<svg width="1920" height="219" viewBox="0 0 1920 219" fill="none" xmlns="http://www.w3.org/2000/svg">
<path opacity="0.4" d="M110.178 215L90.8418 157.871H10.2754L-9.06055 215H-43.1914L33.127 3.62305H68.5762L144.895 215H110.178ZM50.1191 38.7793L18.625 131.504H82.4922L50.998 38.7793H50.1191ZM246.408 217.637C235.275 217.637 225.461 215.098 216.965 210.02C208.469 204.941 201.779 197.861 196.896 188.779H196.311V215H165.549V3.62305H197.189V87.1191H197.922C202.609 78.1348 209.152 71.1035 217.551 66.0254C226.047 60.9473 235.715 58.4082 246.555 58.4082C265.988 58.4082 281.516 65.5859 293.137 79.9414C304.855 94.2969 310.715 113.633 310.715 137.949C310.715 162.363 304.904 181.748 293.283 196.104C281.662 210.459 266.037 217.637 246.408 217.637ZM237.912 85.0684C225.803 85.0684 215.939 89.9512 208.322 99.7168C200.803 109.385 197.043 122.129 197.043 137.949C197.043 153.867 200.803 166.66 208.322 176.328C215.939 185.996 225.803 190.83 237.912 190.83C250.314 190.83 260.129 186.094 267.355 176.621C274.582 167.148 278.195 154.258 278.195 137.949C278.195 121.738 274.582 108.896 267.355 99.4238C260.129 89.8535 250.314 85.0684 237.912 85.0684ZM389.377 192.588C400.51 192.588 409.836 189.219 417.355 182.48C424.973 175.645 428.781 167.246 428.781 157.285V145.127L390.842 147.471C381.369 148.154 374.045 150.498 368.869 154.502C363.791 158.408 361.252 163.682 361.252 170.322C361.252 177.061 363.791 182.48 368.869 186.582C374.045 190.586 380.881 192.588 389.377 192.588ZM380.588 217.637C365.451 217.637 353.098 213.34 343.527 204.746C334.055 196.152 329.318 184.971 329.318 171.201C329.318 157.725 334.299 147.031 344.26 139.121C354.221 131.113 368.332 126.621 386.594 125.645L428.781 123.154V111.289C428.781 102.695 426.047 96.0059 420.578 91.2207C415.109 86.3379 407.541 83.8965 397.873 83.8965C388.889 83.8965 381.564 85.8984 375.9 89.9023C370.334 93.9062 366.818 99.4238 365.354 106.455H335.471C336.35 92.1973 342.502 80.5762 353.928 71.5918C365.354 62.6074 380.393 58.1152 399.045 58.1152C417.697 58.1152 432.541 62.7051 443.576 71.8848C454.709 81.0645 460.275 93.3691 460.275 108.799V215H429.953V189.658H429.221C424.826 198.154 418.137 204.941 409.152 210.02C400.266 215.098 390.744 217.637 380.588 217.637ZM524.143 126.963L586.398 60.8984H623.605L559.738 127.256L626.096 215H589.328L537.033 146.592L523.85 159.629V215H492.209V3.62305H523.85V126.963H524.143ZM774.631 60.8984V215H744.309V188.926H743.576C734.689 208.164 718.771 217.783 695.822 217.783C679.025 217.783 665.793 212.705 656.125 202.549C646.555 192.295 641.77 178.33 641.77 160.654V60.8984H673.41V154.502C673.41 166.318 676.193 175.303 681.76 181.455C687.326 187.51 695.529 190.537 706.369 190.537C717.697 190.537 726.633 186.924 733.176 179.697C739.719 172.471 742.99 162.803 742.99 150.693V60.8984H774.631ZM805.979 215V60.8984H836.154V86.8262H836.887C840.402 78.1348 846.018 71.2012 853.732 66.0254C861.447 60.8496 870.432 58.2617 880.686 58.2617C891.33 58.2617 900.363 60.8984 907.785 66.1719C915.305 71.4453 920.627 78.8672 923.752 88.4375H924.484C928.488 79.0625 934.738 71.6895 943.234 66.3184C951.828 60.9473 961.594 58.2617 972.531 58.2617C987.766 58.2617 999.973 62.9004 1009.15 72.1777C1018.33 81.4551 1022.92 93.7598 1022.92 109.092V215H991.135V116.709C991.135 106.748 988.547 99.0332 983.371 93.5645C978.293 88.0957 971.066 85.3613 961.691 85.3613C952.316 85.3613 944.65 88.4863 938.693 94.7363C932.834 100.986 929.904 108.994 929.904 118.76V215H898.85V114.365C898.85 105.479 896.213 98.4473 890.939 93.2715C885.666 87.998 878.586 85.3613 869.699 85.3613C860.324 85.3613 852.609 88.6328 846.555 95.1758C840.598 101.621 837.619 109.824 837.619 119.785V215H805.979ZM1172.92 196.543C1159.64 210.801 1141.92 217.93 1119.75 217.93C1097.58 217.93 1079.86 210.801 1066.57 196.543C1053.29 182.188 1046.65 162.656 1046.65 137.949C1046.65 113.34 1053.29 93.9062 1066.57 79.6484C1079.86 65.293 1097.58 58.1152 1119.75 58.1152C1141.92 58.1152 1159.64 65.293 1172.92 79.6484C1186.2 93.9062 1192.84 113.34 1192.84 137.949C1192.84 162.656 1186.2 182.188 1172.92 196.543ZM1119.75 191.855C1132.35 191.855 1142.31 187.119 1149.63 177.646C1156.96 168.174 1160.62 154.941 1160.62 137.949C1160.62 121.055 1156.91 107.871 1149.48 98.3984C1142.16 88.9258 1132.25 84.1895 1119.75 84.1895C1107.25 84.1895 1097.29 88.9258 1089.87 98.3984C1082.54 107.871 1078.88 121.055 1078.88 137.949C1078.88 154.941 1082.54 168.174 1089.87 177.646C1097.29 187.119 1107.25 191.855 1119.75 191.855ZM1344.75 60.8984L1289.52 215H1255.54L1200.02 60.8984H1233.71L1272.38 184.092H1272.97L1311.64 60.8984H1344.75ZM1516.87 218.516C1487.18 218.516 1463.6 208.701 1446.12 189.072C1428.73 169.443 1420.04 142.832 1420.04 109.238C1420.04 75.8398 1428.78 49.3262 1446.26 29.6973C1463.74 9.9707 1487.28 0.107422 1516.87 0.107422C1540.89 0.107422 1561.15 6.89453 1577.66 20.4688C1594.16 33.9453 1603.78 51.6699 1606.52 73.6426H1574C1571.07 60.0684 1564.38 49.2285 1553.93 41.123C1543.58 32.9199 1531.22 28.8184 1516.87 28.8184C1497.63 28.8184 1482.25 36.1426 1470.72 50.791C1459.3 65.3418 1453.59 84.8242 1453.59 109.238C1453.59 133.945 1459.3 153.574 1470.72 168.125C1482.15 182.578 1497.58 189.805 1517.01 189.805C1531.66 189.805 1543.97 186.24 1553.93 179.111C1563.99 171.982 1570.68 162.021 1574 149.229H1606.66C1602.66 171.104 1592.75 188.145 1576.93 200.352C1561.2 212.461 1541.18 218.516 1516.87 218.516ZM1633.62 215V3.62305H1665.26V215H1633.62ZM1698.8 215V60.8984H1730.44V215H1698.8ZM1727.66 33.0664C1724.04 36.582 1719.7 38.3398 1714.62 38.3398C1709.54 38.3398 1705.2 36.582 1701.58 33.0664C1698.07 29.5508 1696.31 25.3027 1696.31 20.3223C1696.31 15.2441 1698.07 10.9473 1701.58 7.43164C1705.2 3.91602 1709.54 2.1582 1714.62 2.1582C1719.8 2.1582 1724.14 3.91602 1727.66 7.43164C1731.27 10.9473 1733.08 15.2441 1733.08 20.3223C1733.08 25.3027 1731.27 29.5508 1727.66 33.0664ZM1762.81 215V60.8984H1792.99V86.6797H1793.72C1798.02 77.6953 1804.27 70.7129 1812.47 65.7324C1820.68 60.752 1830.59 58.2617 1842.21 58.2617C1859.1 58.2617 1872.24 63.3398 1881.61 73.4961C1890.99 83.5547 1895.68 97.4707 1895.68 115.244V215H1863.89V121.396C1863.89 109.678 1861.11 100.791 1855.54 94.7363C1850.07 88.584 1841.92 85.5078 1831.08 85.5078C1819.94 85.5078 1811.06 89.1211 1804.42 96.3477C1797.78 103.574 1794.46 113.193 1794.46 125.205V215H1762.81ZM1927.32 215V60.8984H1958.96V215H1927.32ZM1956.17 33.0664C1952.56 36.582 1948.21 38.3398 1943.14 38.3398C1938.06 38.3398 1933.71 36.582 1930.1 33.0664C1926.58 29.5508 1924.83 25.3027 1924.83 20.3223C1924.83 15.2441 1926.58 10.9473 1930.1 7.43164C1933.71 3.91602 1938.06 2.1582 1943.14 2.1582C1948.31 2.1582 1952.66 3.91602 1956.17 7.43164C1959.79 10.9473 1961.59 15.2441 1961.59 20.3223C1961.59 25.3027 1959.79 29.5508 1956.17 33.0664ZM2123.61 113.926H2093.43C2091.77 105.234 2087.77 98.1543 2081.42 92.6855C2075.17 87.2168 2067.11 84.4824 2057.25 84.4824C2044.94 84.4824 2035.08 89.3164 2027.66 98.9844C2020.33 108.555 2016.67 121.543 2016.67 137.949C2016.67 154.648 2020.33 167.734 2027.66 177.207C2035.08 186.68 2045.04 191.416 2057.54 191.416C2067.21 191.416 2075.12 188.926 2081.27 183.945C2087.52 178.867 2091.57 171.836 2093.43 162.852H2123.9C2122.24 179.355 2115.3 192.686 2103.1 202.842C2090.99 212.9 2075.71 217.93 2057.25 217.93C2035.08 217.93 2017.4 210.801 2004.22 196.543C1991.04 182.188 1984.45 162.656 1984.45 137.949C1984.45 113.535 1991.04 94.1504 2004.22 79.7949C2017.4 65.3418 2034.98 58.1152 2056.96 58.1152C2076.1 58.1152 2091.62 63.4863 2103.54 74.2285C2115.45 84.873 2122.14 98.1055 2123.61 113.926Z" fill="#F5F5F5"/>
</svg>
