<svg width="1807" height="183" viewBox="0 0 1807 183" fill="none" xmlns="http://www.w3.org/2000/svg">
<g style="mix-blend-mode:soft-light" opacity="0.3">
<path d="M128.133 180L112.02 132.393H44.8809L28.7676 180H0.325195L63.9238 3.85254H93.4648L157.063 180H128.133ZM78.084 33.1494L51.8389 110.42H105.062L78.8164 33.1494H78.084ZM241.658 182.197C232.381 182.197 224.202 180.081 217.122 175.85C210.042 171.618 204.467 165.718 200.398 158.149H199.91V180H174.275V3.85254H200.643V73.4326H201.253C205.159 65.9456 210.612 60.0863 217.61 55.8545C224.69 51.6227 232.747 49.5068 241.78 49.5068C257.975 49.5068 270.914 55.4883 280.599 67.4512C290.364 79.4141 295.247 95.5273 295.247 115.791C295.247 136.136 290.405 152.29 280.721 164.253C271.036 176.216 258.016 182.197 241.658 182.197ZM234.578 71.7236C224.487 71.7236 216.268 75.7926 209.92 83.9307C203.654 91.9873 200.521 102.607 200.521 115.791C200.521 129.056 203.654 139.717 209.92 147.773C216.268 155.83 224.487 159.858 234.578 159.858C244.913 159.858 253.092 155.911 259.114 148.018C265.136 140.124 268.147 129.382 268.147 115.791C268.147 102.282 265.136 91.5804 259.114 83.6865C253.092 75.7113 244.913 71.7236 234.578 71.7236ZM360.799 161.323C370.076 161.323 377.848 158.516 384.114 152.9C390.462 147.204 393.636 140.205 393.636 131.904V121.772L362.02 123.726C354.126 124.295 348.022 126.248 343.709 129.585C339.477 132.84 337.361 137.235 337.361 142.769C337.361 148.384 339.477 152.9 343.709 156.318C348.022 159.655 353.719 161.323 360.799 161.323ZM353.475 182.197C340.861 182.197 330.566 178.617 322.591 171.455C314.697 164.294 310.75 154.976 310.75 143.501C310.75 132.271 314.9 123.359 323.201 116.768C331.502 110.094 343.261 106.351 358.479 105.537L393.636 103.462V93.5742C393.636 86.4128 391.357 80.8382 386.8 76.8506C382.243 72.7816 375.936 70.7471 367.879 70.7471C360.392 70.7471 354.288 72.4154 349.568 75.752C344.93 79.0885 342 83.6865 340.779 89.5459H315.877C316.609 77.6644 321.736 67.9801 331.258 60.4932C340.779 53.0062 353.312 49.2627 368.855 49.2627C384.399 49.2627 396.769 53.0876 405.965 60.7373C415.242 68.387 419.881 78.641 419.881 91.499V180H394.612V158.882H394.002C390.34 165.962 384.765 171.618 377.278 175.85C369.873 180.081 361.938 182.197 353.475 182.197ZM473.104 106.636L524.983 51.582H555.989L502.767 106.88L558.064 180H527.425L483.846 122.993L472.859 133.857V180H446.492V3.85254H472.859V106.636H473.104ZM681.844 51.582V180H656.575V158.271H655.965C648.559 174.303 635.294 182.319 616.17 182.319C602.173 182.319 591.146 178.088 583.089 169.624C575.114 161.079 571.126 149.442 571.126 134.712V51.582L597.493 51.582V129.585C597.493 139.432 599.812 146.919 604.451 152.046C609.09 157.091 615.926 159.614 624.959 159.614C634.399 159.614 641.845 156.603 647.298 150.581C652.75 144.559 655.477 136.502 655.477 126.411V51.582H681.844ZM707.967 180V51.582H733.113V73.1885H733.724C736.653 65.9456 741.333 60.1676 747.762 55.8545C754.191 51.5413 761.678 49.3848 770.223 49.3848C779.093 49.3848 786.621 51.582 792.806 55.9766C799.072 60.3711 803.507 66.556 806.111 74.5312H806.722C810.058 66.7187 815.267 60.5745 822.347 56.0986C829.508 51.6227 837.646 49.3848 846.761 49.3848C859.456 49.3848 869.629 53.2503 877.278 60.9814C884.928 68.7126 888.753 78.9665 888.753 91.7432V180H862.264V98.0908C862.264 89.79 860.107 83.361 855.794 78.8037C851.562 74.2464 845.54 71.9678 837.728 71.9678C829.915 71.9678 823.527 74.5719 818.562 79.7803C813.68 84.9886 811.238 91.6618 811.238 99.7998V180H785.359V96.1377C785.359 88.7321 783.162 82.8727 778.768 78.5596C774.373 74.165 768.473 71.9678 761.067 71.9678C753.255 71.9678 746.826 74.694 741.78 80.1465C736.816 85.5176 734.334 92.3535 734.334 100.654V180H707.967ZM1013.75 164.619C1002.69 176.501 987.915 182.441 969.441 182.441C950.968 182.441 936.198 176.501 925.13 164.619C914.062 152.656 908.528 136.38 908.528 115.791C908.528 95.2832 914.062 79.0885 925.13 67.207C936.198 55.2441 950.968 49.2627 969.441 49.2627C987.915 49.2627 1002.69 55.2441 1013.75 67.207C1024.82 79.0885 1030.35 95.2832 1030.35 115.791C1030.35 136.38 1024.82 152.656 1013.75 164.619ZM969.441 160.713C979.939 160.713 988.24 156.766 994.344 148.872C1000.45 140.978 1003.5 129.951 1003.5 115.791C1003.5 101.712 1000.41 90.7259 994.222 82.832C988.118 74.9382 979.858 70.9912 969.441 70.9912C959.025 70.9912 950.724 74.9382 944.539 82.832C938.436 90.7259 935.384 101.712 935.384 115.791C935.384 129.951 938.436 140.978 944.539 148.872C950.724 156.766 959.025 160.713 969.441 160.713ZM1156.94 51.582L1110.92 180H1082.6L1036.34 51.582L1064.41 51.582L1096.64 154.243H1097.13L1129.35 51.582H1156.94ZM1300.37 182.93C1275.63 182.93 1255.98 174.751 1241.41 158.394C1226.93 142.036 1219.69 119.86 1219.69 91.8652C1219.69 64.0332 1226.97 41.9385 1241.54 25.5811C1256.1 9.14225 1275.72 0.922852 1300.37 0.922852C1320.39 0.922852 1337.28 6.57878 1351.03 17.8906C1364.79 29.1211 1372.8 43.8916 1375.08 62.2021H1347.98C1345.54 50.8903 1339.97 41.8571 1331.26 35.1025C1322.63 28.2666 1312.34 24.8486 1300.37 24.8486C1284.34 24.8486 1271.52 30.9521 1261.92 43.1592C1252.4 55.2848 1247.64 71.5202 1247.64 91.8652C1247.64 112.454 1252.4 128.812 1261.92 140.937C1271.44 152.982 1284.3 159.004 1300.5 159.004C1312.7 159.004 1322.96 156.034 1331.26 150.093C1339.64 144.152 1345.21 135.851 1347.98 125.19H1375.2C1371.87 143.42 1363.61 157.62 1350.42 167.793C1337.32 177.884 1320.64 182.93 1300.37 182.93ZM1397.66 180V3.85254H1424.03V180H1397.66ZM1451.99 180V51.582H1478.35V180H1451.99ZM1476.03 28.3887C1473.02 31.3184 1469.4 32.7832 1465.17 32.7832C1460.94 32.7832 1457.32 31.3184 1454.3 28.3887C1451.38 25.459 1449.91 21.9189 1449.91 17.7686C1449.91 13.5368 1451.38 9.95605 1454.3 7.02637C1457.32 4.09668 1460.94 2.63184 1465.17 2.63184C1469.48 2.63184 1473.1 4.09668 1476.03 7.02637C1479.04 9.95605 1480.55 13.5368 1480.55 17.7686C1480.55 21.9189 1479.04 25.459 1476.03 28.3887ZM1505.33 180V51.582L1530.48 51.582V73.0664H1531.09C1534.67 65.5794 1539.88 59.7607 1546.71 55.6104C1553.55 51.46 1561.81 49.3848 1571.49 49.3848C1585.57 49.3848 1596.52 53.6165 1604.33 62.0801C1612.14 70.4622 1616.05 82.0589 1616.05 96.8701V180H1589.56V101.997C1589.56 92.2314 1587.24 84.8258 1582.6 79.7803C1578.04 74.6533 1571.25 72.0898 1562.21 72.0898C1552.94 72.0898 1545.53 75.1009 1540 81.123C1534.46 87.1452 1531.7 95.1611 1531.7 105.171V180H1505.33ZM1642.42 180V51.582H1668.78V180H1642.42ZM1666.46 28.3887C1663.45 31.3184 1659.83 32.7832 1655.6 32.7832C1651.37 32.7832 1647.75 31.3184 1644.73 28.3887C1641.8 25.459 1640.34 21.9189 1640.34 17.7686C1640.34 13.5368 1641.8 9.95605 1644.73 7.02637C1647.75 4.09668 1651.37 2.63184 1655.6 2.63184C1659.91 2.63184 1663.53 4.09668 1666.46 7.02637C1669.47 9.95605 1670.98 13.5368 1670.98 17.7686C1670.98 21.9189 1669.47 25.459 1666.46 28.3887ZM1805.99 95.7715H1780.84C1779.46 88.5286 1776.12 82.6286 1770.83 78.0713C1765.62 73.514 1758.91 71.2354 1750.69 71.2354C1740.44 71.2354 1732.22 75.2637 1726.03 83.3203C1719.93 91.2956 1716.88 102.119 1716.88 115.791C1716.88 129.707 1719.93 140.612 1726.03 148.506C1732.22 156.4 1740.52 160.347 1750.94 160.347C1758.99 160.347 1765.58 158.271 1770.71 154.121C1775.92 149.889 1779.3 144.03 1780.84 136.543H1806.23C1804.85 150.296 1799.07 161.405 1788.9 169.868C1778.81 178.25 1766.07 182.441 1750.69 182.441C1732.22 182.441 1717.49 176.501 1706.5 164.619C1695.52 152.656 1690.02 136.38 1690.02 115.791C1690.02 95.446 1695.52 79.292 1706.5 67.3291C1717.49 55.2848 1732.14 49.2627 1750.45 49.2627C1766.4 49.2627 1779.34 53.7386 1789.27 62.6904C1799.19 71.5609 1804.77 82.5879 1805.99 95.7715Z" fill="white"/>
</g>
</svg>
