<svg width="44" height="44" viewBox="0 0 44 44" fill="none" xmlns="http://www.w3.org/2000/svg">
<rect width="44" height="44" rx="12" fill="white"/>
<path d="M26.7 29.73H17.3C16.56 29.73 15.81 29.2 15.56 28.51L11.42 16.92C10.91 15.46 11.28 14.79 11.68 14.49C12.08 14.19 12.83 14.01 14.09 14.91L17.99 17.7C18.11 17.77 18.22 17.8 18.3 17.78C18.39 17.75 18.46 17.67 18.51 17.53L20.27 12.84C20.8 11.44 21.58 11.23 22 11.23C22.42 11.23 23.2 11.44 23.73 12.84L25.49 17.53C25.54 17.66 25.61 17.75 25.7 17.78C25.79 17.81 25.9 17.78 26.01 17.69L29.67 15.08C31.01 14.12 31.79 14.31 32.22 14.62C32.64 14.94 33.03 15.65 32.48 17.2L28.44 28.51C28.19 29.2 27.44 29.73 26.7 29.73ZM12.68 15.81C12.7 15.95 12.74 16.15 12.84 16.41L16.98 28C17.02 28.1 17.2 28.23 17.3 28.23H26.7C26.81 28.23 26.99 28.1 27.02 28L31.06 16.7C31.2 16.32 31.24 16.06 31.25 15.91C31.1 15.96 30.87 16.07 30.54 16.31L26.88 18.92C26.38 19.27 25.79 19.38 25.26 19.22C24.73 19.06 24.3 18.64 24.08 18.07L22.32 13.38C22.19 13.03 22.07 12.86 22 12.78C21.93 12.86 21.81 13.03 21.68 13.37L19.92 18.06C19.71 18.63 19.28 19.05 18.74 19.21C18.21 19.37 17.61 19.26 17.12 18.91L13.22 16.12C12.99 15.96 12.81 15.86 12.68 15.81Z" fill="#5C677E"/>
<path d="M27.5 32.75H16.5C16.09 32.75 15.75 32.41 15.75 32C15.75 31.59 16.09 31.25 16.5 31.25H27.5C27.91 31.25 28.25 31.59 28.25 32C28.25 32.41 27.91 32.75 27.5 32.75Z" fill="#5C677E"/>
<path d="M24.5 24.75H19.5C19.09 24.75 18.75 24.41 18.75 24C18.75 23.59 19.09 23.25 19.5 23.25H24.5C24.91 23.25 25.25 23.59 25.25 24C25.25 24.41 24.91 24.75 24.5 24.75Z" fill="#5C677E"/>
</svg>
