<svg width="26" height="26" viewBox="0 0 26 26" fill="none" xmlns="http://www.w3.org/2000/svg">
<path d="M17.2902 23.0968C17.0844 23.0968 16.8785 23.0209 16.716 22.8584L15.0694 21.2118C14.7552 20.8976 14.7552 20.3776 15.0694 20.0634C15.3835 19.7493 15.9035 19.7493 16.2177 20.0634L17.2902 21.1359L20.0094 18.4168C20.3235 18.1026 20.8435 18.1026 21.1577 18.4168C21.4719 18.7309 21.4719 19.2509 21.1577 19.5651L17.8644 22.8584C17.7019 23.0209 17.496 23.0968 17.2902 23.0968Z" fill="white"/>
<path d="M13.1735 12.5882C13.141 12.5882 13.1194 12.5882 13.0869 12.5882C13.0327 12.5773 12.9569 12.5773 12.8919 12.5882C9.75021 12.4907 7.37771 10.0207 7.37771 6.9765C7.36688 5.4815 7.95188 4.07317 9.01354 3.0115C10.0752 1.94984 11.4835 1.354 12.9894 1.354C16.0877 1.354 18.6119 3.87817 18.6119 6.9765C18.6119 10.0207 16.2394 12.4798 13.206 12.5882C13.1952 12.5882 13.1844 12.5882 13.1735 12.5882ZM12.9894 2.979C11.9169 2.979 10.9202 3.4015 10.1619 4.149C9.41438 4.90734 9.00271 5.904 9.00271 6.96567C9.00271 9.13234 10.6927 10.8873 12.8485 10.9523C12.9135 10.9415 13.0544 10.9415 13.1952 10.9523C15.3294 10.8548 16.9869 9.11067 16.9869 6.96567C16.9869 4.77734 15.1885 2.979 12.9894 2.979Z" fill="white"/>
<path d="M12.9894 24.44C10.7794 24.44 8.68854 23.8658 7.10688 22.8042C5.60104 21.7967 4.77771 20.4208 4.77771 18.9367C4.77771 17.4525 5.61188 16.0875 7.10688 15.0908C10.346 12.9242 15.611 12.9242 18.8502 15.0908C19.2185 15.34 19.3269 15.8492 19.0777 16.2175C18.8285 16.5967 18.3194 16.6942 17.951 16.445C15.2535 14.6467 10.7035 14.6467 8.00604 16.445C6.96604 17.1383 6.40271 18.0158 6.40271 18.9367C6.40271 19.8575 6.96604 20.7567 8.00604 21.45C9.31688 22.3275 11.0827 22.8042 12.9785 22.8042C13.4227 22.8042 13.791 23.1725 13.791 23.6167C13.791 24.0608 13.4335 24.44 12.9894 24.44Z" fill="white"/>
</svg>
