<svg width="24" height="32" viewBox="0 0 24 32" fill="none" xmlns="http://www.w3.org/2000/svg">
<path d="M6.30195 0.0702465C5.30376 0.357971 4.43417 1.06477 3.99325 1.95297C3.59519 2.74734 3.58907 2.80363 3.55845 4.71763C3.53396 6.64413 3.5707 6.97564 3.88302 7.51981C4.10348 7.89511 4.58726 8.34546 5.00369 8.53936C5.34663 8.70824 5.365 8.70824 6.89597 8.72701L8.43919 8.74577L8.69639 9.24616C9.12507 10.0843 9.84156 10.7223 10.7479 11.0726C11.0602 11.1914 11.2317 11.2102 11.9666 11.2102C12.7014 11.2102 12.8729 11.1914 13.1852 11.0726C14.0915 10.7223 14.808 10.0843 15.2367 9.24616L15.4878 8.74577L18.2742 8.70824L18.6722 8.50809C19.3336 8.17658 19.7561 7.67619 19.9644 6.98815C20.0807 6.58158 20.0868 6.44397 20.0685 4.75516C20.044 3.10387 20.0317 2.92247 19.9092 2.59097C19.4744 1.39003 18.709 0.583147 17.5944 0.15156L17.2331 0.0139525L11.9053 0.00144273C7.78394 -0.00481216 6.51629 0.00769761 6.30195 0.0702465ZM16.5901 2.55344C16.9698 2.63475 17.2943 2.90996 17.4536 3.26649C17.5515 3.48541 17.5699 3.69808 17.5699 4.874V6.23756H15.4939L15.2367 5.72466C14.7468 4.77392 13.7915 4.01708 12.7872 3.79816C12.2789 3.68557 11.1949 3.74186 10.7479 3.91075C9.84769 4.24226 9.12507 4.89276 8.69027 5.73717L8.43307 6.25633L8.02277 6.21254C7.80231 6.19378 7.26953 6.17501 6.84086 6.17501H6.057V4.84272C6.057 3.68557 6.07537 3.48541 6.17335 3.26649C6.33257 2.91622 6.61427 2.66602 6.95721 2.5722C7.34914 2.46587 16.1124 2.4471 16.5901 2.55344ZM12.4381 6.36266C12.4626 6.36266 12.5851 6.45648 12.7075 6.56282C12.977 6.8005 13.1607 7.18205 13.1607 7.48854C13.1607 8.0077 12.7014 8.57689 12.2238 8.6582C12.0829 8.67697 11.9666 8.69573 11.9666 8.69573C11.9666 8.69573 11.8502 8.67697 11.7093 8.6582C11.2317 8.57689 10.7724 8.0077 10.7724 7.48854C10.7724 7.20082 10.9561 6.81301 11.1888 6.58784C11.4215 6.36892 11.8747 6.23756 12.1809 6.30637C12.2972 6.33764 12.4136 6.36266 12.4381 6.36266Z" fill="white"/>
<path d="M4.31169 10.5159C4.04224 10.6347 3.68093 11.0726 3.63194 11.3353C3.48496 12.1359 4.08511 13.9311 4.91795 15.2071C6.02026 16.8834 7.70433 18.0843 9.73133 18.641C10.4172 18.8286 10.4723 18.8349 11.7828 18.8349C13.0933 18.8349 13.1485 18.8286 13.8343 18.641C15.8613 18.0843 17.5454 16.8834 18.6477 15.2071C19.4806 13.9311 20.0807 12.1359 19.9337 11.3353C19.8847 11.0663 19.5173 10.6347 19.2417 10.5096C18.9478 10.3846 18.4028 10.4033 18.1211 10.5534C17.7536 10.7473 17.5883 11.0163 17.4107 11.7419C17.129 12.9178 16.6268 13.8185 15.8124 14.6254C14.5447 15.8826 13.0321 16.4393 11.2501 16.2954C9.25979 16.139 7.4165 14.813 6.55303 12.9178C6.41831 12.6363 6.24072 12.1046 6.14886 11.7419C5.96514 11.01 5.81204 10.7411 5.44461 10.5534C5.16291 10.4096 4.59339 10.3908 4.31169 10.5159Z" fill="white"/>
<path d="M6.38156 20.3361C6.24072 20.3799 5.94064 20.53 5.70794 20.6551C2.92769 22.2376 0.839443 24.996 0.116824 28.0358C-0.0301492 28.6363 -0.0362731 29.0867 0.0862047 29.6246C0.337284 30.7067 1.17013 31.6074 2.20507 31.9076C2.50514 32.0014 3.10528 32.0077 7.50836 31.9952L12.4748 31.9764L12.7137 31.7825C13.3812 31.2383 13.3812 30.2751 12.7137 29.7309L12.4748 29.537L7.7227 29.5057C2.68273 29.4745 2.80521 29.4807 2.60312 29.1805C2.46227 28.9803 2.48065 28.8177 2.71335 28.0984C3.31962 26.2532 4.45866 24.6832 6.04475 23.501C6.29583 23.3134 6.51017 23.1946 6.54079 23.2258C6.56528 23.2571 6.64489 23.4322 6.71838 23.6136C7.22666 24.9021 8.77601 26.372 10.8643 27.5605C11.4889 27.917 11.5624 27.942 11.9298 27.942C12.285 27.942 12.3769 27.9107 12.8913 27.6293C15.0959 26.4283 16.7554 24.8521 17.2698 23.476L17.4046 23.1258L17.7414 23.3759C18.9968 24.2829 19.8909 25.3462 20.5706 26.7411C21.1095 27.8482 21.3973 29.0116 21.4708 30.3376C21.5137 31.1946 21.6178 31.476 21.9975 31.7825C22.2179 31.9639 22.2669 31.9764 22.7446 31.9764C23.2223 31.9764 23.2713 31.9639 23.4917 31.7825C23.8469 31.4948 24 31.1383 24 30.5816C24 29.4995 23.7367 28.0108 23.3447 26.8537C22.469 24.2829 20.7053 22.1062 18.4089 20.7614C17.7169 20.3611 17.3678 20.2485 16.8106 20.2548C16.3084 20.261 16.0941 20.3298 15.7144 20.605C15.3592 20.8615 15.0775 21.4182 15.004 22.0374C14.9305 22.6566 14.759 22.9506 14.1038 23.6074C13.5465 24.1641 12.1564 25.1899 11.9482 25.1899C11.7645 25.1899 10.4601 24.2391 9.92117 23.7137C9.18631 23.0007 8.99647 22.6942 8.9291 22.0874C8.84337 21.2868 8.48206 20.6863 7.91866 20.4049C7.61859 20.2485 6.75512 20.211 6.38156 20.3361Z" fill="white"/>
<path d="M15.8858 29.5996C15.0407 30.0562 14.9428 31.1758 15.6899 31.7825L15.9287 31.9764H18.66L18.8988 31.7825C19.5663 31.2383 19.5663 30.2751 18.8988 29.7309L18.66 29.537L17.3678 29.5182C16.2778 29.5057 16.0389 29.5182 15.8858 29.5996Z" fill="white"/>
</svg>
