<svg width="32" height="32" viewBox="0 0 32 32" fill="none" xmlns="http://www.w3.org/2000/svg">
<path d="M2.72759 0.11875C1.44659 0.49375 0.43429 1.525 0.103105 2.79375C-0.0343683 3.325 -0.0343683 8.925 0.103105 9.725C0.246827 10.5687 0.540519 11.4312 0.94669 12.2375C2.20894 14.7125 4.53974 16.425 7.3142 16.9062C8.00781 17.0312 9.52001 17.025 10.2324 16.9062C11.076 16.7625 11.9383 16.4688 12.7444 16.0625C15.2189 14.8 16.9311 12.4687 17.4122 9.69375C17.5559 8.9 17.5497 3.3375 17.406 2.79375C16.9873 1.1625 15.5001 0 13.8442 0C13.438 0 13.3193 0.025 13.0943 0.15625C12.7006 0.3875 12.5069 0.75 12.5069 1.25C12.5069 1.98125 12.9443 2.4375 13.7254 2.53125C14.3066 2.6 14.6065 2.7875 14.844 3.21875C14.969 3.45625 14.9752 3.5625 14.9939 5.61875C15.0252 8.94375 14.9252 9.725 14.3191 10.9688C13.3818 12.9 11.4134 14.2625 9.32006 14.425C7.73286 14.5562 6.2644 14.1312 5.02714 13.1937C4.18356 12.5625 3.57743 11.8062 3.12751 10.85C2.59012 9.69375 2.49014 8.84375 2.52138 5.61875C2.54013 3.6625 2.55263 3.45 2.65886 3.25C2.90256 2.7875 3.19625 2.6 3.78988 2.53125C4.57098 2.4375 5.0084 1.98125 5.0084 1.25C5.0084 0.75 4.81468 0.3875 4.42101 0.15625C4.18981 0.01875 4.08358 0 3.62742 0.00625C3.32747 0.00625 2.9463 0.05625 2.72759 0.11875Z" fill="white"/>
<path d="M24.5046 14.5875C22.1613 15.0812 20.1992 16.9375 19.6805 19.15L19.5993 19.5H18.8932C18.0621 19.5 17.6184 19.6 16.9811 19.9187C16.3812 20.225 15.7251 20.875 15.4189 21.4875C15.0252 22.2687 15.0064 22.4125 15.0064 24.75C15.0064 27.0125 14.9627 27.5375 14.7252 28.0437C14.5253 28.4812 13.9754 29.025 13.5255 29.2375C13.2005 29.3875 13.0881 29.4062 12.5069 29.4062C11.9258 29.4062 11.8133 29.3875 11.4884 29.2375C11.0385 29.025 10.4886 28.4812 10.2886 28.0437C10.2011 27.8625 10.1074 27.5187 10.0699 27.2812C10.0387 27.0312 10.0074 25.4375 10.0074 23.6V20.3562L9.8512 20.0875C9.62 19.6938 9.25757 19.5 8.75766 19.5C8.25776 19.5 7.89533 19.6938 7.66413 20.0875L7.50791 20.3562V24.0437C7.50791 28.2562 7.50166 28.2125 8.05155 29.3125C8.3015 29.8188 8.43898 29.9937 8.97637 30.5312C9.51377 31.0688 9.68873 31.2062 10.1949 31.4562C11.0072 31.8625 11.5946 32 12.5069 32C13.4193 32 14.0066 31.8625 14.819 31.4562C15.3189 31.2062 15.5063 31.0625 16.0125 30.5625C16.6811 29.9 17.0186 29.375 17.2997 28.5312L17.4685 28.0312L17.506 25.5C17.5372 23.1875 17.5497 22.95 17.6559 22.75C17.9309 22.225 18.2371 22.0625 19.0307 22.0187L19.5993 21.9812L19.6805 22.3375C20.2117 24.6313 22.3113 26.55 24.7108 26.9375C25.3982 27.05 26.7729 26.9875 27.4103 26.8187C29.6661 26.2125 31.472 24.2625 31.9156 21.95C32.0281 21.3562 32.0281 20.1437 31.9156 19.55C31.472 17.2375 29.6723 15.2937 27.4103 14.6812C26.7729 14.5125 25.1357 14.4562 24.5046 14.5875ZM26.8479 17.2188C28.0351 17.5812 29.0225 18.6187 29.3474 19.8438C29.4661 20.3188 29.4661 21.1812 29.3474 21.6562C29.1162 22.5312 28.5101 23.3625 27.7352 23.875C26.6167 24.6063 25.0607 24.6375 23.8922 23.9562C23.4798 23.7125 22.9174 23.1687 22.63 22.7312C21.9176 21.6375 21.8676 20.0937 22.5175 18.95C22.9299 18.2187 23.686 17.575 24.4858 17.275C25.2482 16.9875 26.0105 16.9688 26.8479 17.2188Z" fill="white"/>
<path d="M25.0857 19.6625C24.6983 19.8937 24.5046 20.2563 24.5046 20.75C24.5046 21.5187 24.9857 22 25.7543 22C26.5229 22 27.0041 21.5187 27.0041 20.75C27.0041 19.9813 26.5229 19.5 25.7481 19.5C25.4294 19.5 25.2919 19.5312 25.0857 19.6625Z" fill="white"/>
</svg>
