<svg width="33" height="25" viewBox="0 0 33 25" fill="none" xmlns="http://www.w3.org/2000/svg">
<path d="M6.8 12.3C5.06667 12.1667 3.66667 11.6 2.6 10.6C1.53333 9.6 1 8.26666 1 6.6C1 4.73333 1.6 3.3 2.8 2.3C4 1.3 5.5 0.799995 7.3 0.799995C9.5 0.93333 11.0333 1.8 11.9 3.4C12.8333 5 13.3 6.76666 13.3 8.69999C13.3 10.5 13 12.2 12.4 13.8C11.8667 15.3333 11.1333 16.8 10.2 18.2C9.26667 19.6 8.16667 20.8333 6.9 21.9C5.7 22.9667 4.43333 23.7333 3.1 24.2L0.7 20.9C2.03333 19.9667 3.26667 18.7 4.4 17.1C5.6 15.5 6.4 13.9 6.8 12.3ZM25.7 12.3C23.9667 12.1667 22.5667 11.6 21.5 10.6C20.4333 9.6 19.9 8.26666 19.9 6.6C19.9 4.73333 20.5 3.3 21.7 2.3C22.9 1.3 24.4 0.799995 26.2 0.799995C28.4 0.93333 29.9333 1.8 30.8 3.4C31.7333 5 32.2 6.76666 32.2 8.69999C32.2 10.5 31.9 12.2 31.3 13.8C30.7667 15.3333 30.0333 16.8 29.1 18.2C28.1667 19.6 27.0667 20.8333 25.8 21.9C24.6 22.9667 23.3333 23.7333 22 24.2L19.6 20.9C20.9333 19.9667 22.1667 18.7 23.3 17.1C24.5 15.5 25.3 13.9 25.7 12.3Z" fill="white"/>
</svg>
