<svg width="26" height="26" viewBox="0 0 26 26" fill="none" xmlns="http://www.w3.org/2000/svg">
<path d="M12.9998 24.6462C6.57567 24.6462 1.354 19.4245 1.354 13.0003C1.354 6.57616 6.57567 1.35449 12.9998 1.35449C19.424 1.35449 24.6457 6.57616 24.6457 13.0003C24.6457 19.4245 19.424 24.6462 12.9998 24.6462ZM12.9998 2.97949C7.47484 2.97949 2.979 7.47533 2.979 13.0003C2.979 18.5253 7.47484 23.0212 12.9998 23.0212C18.5248 23.0212 23.0207 18.5253 23.0207 13.0003C23.0207 7.47533 18.5248 2.97949 12.9998 2.97949Z" fill="white"/>
<path d="M17.3333 13.8125H8.66663C8.22246 13.8125 7.85413 13.4442 7.85413 13C7.85413 12.5558 8.22246 12.1875 8.66663 12.1875H17.3333C17.7775 12.1875 18.1458 12.5558 18.1458 13C18.1458 13.4442 17.7775 13.8125 17.3333 13.8125Z" fill="white"/>
<path d="M13 18.1462C12.5558 18.1462 12.1875 17.7778 12.1875 17.3337V8.66699C12.1875 8.22283 12.5558 7.85449 13 7.85449C13.4442 7.85449 13.8125 8.22283 13.8125 8.66699V17.3337C13.8125 17.7778 13.4442 18.1462 13 18.1462Z" fill="white"/>
</svg>
