<svg width="22" height="22" viewBox="0 0 22 22" fill="none" xmlns="http://www.w3.org/2000/svg">
<path d="M10.5413 19.9377C5.36217 19.9377 1.14551 15.721 1.14551 10.5418C1.14551 5.36266 5.36217 1.146 10.5413 1.146C15.7205 1.146 19.9372 5.36266 19.9372 10.5418C19.9372 15.721 15.7205 19.9377 10.5413 19.9377ZM10.5413 2.521C6.11384 2.521 2.52051 6.1235 2.52051 10.5418C2.52051 14.9602 6.11384 18.5627 10.5413 18.5627C14.9688 18.5627 18.5622 14.9602 18.5622 10.5418C18.5622 6.1235 14.9688 2.521 10.5413 2.521Z" fill="#292D32"/>
<path d="M20.1671 20.8541C19.9929 20.8541 19.8188 20.7899 19.6813 20.6524L17.8479 18.8191C17.5821 18.5533 17.5821 18.1133 17.8479 17.8474C18.1138 17.5816 18.5538 17.5816 18.8196 17.8474L20.6529 19.6808C20.9188 19.9466 20.9188 20.3866 20.6529 20.6524C20.5154 20.7899 20.3413 20.8541 20.1671 20.8541Z" fill="#292D32"/>
</svg>
