<svg width="26" height="26" viewBox="0 0 26 26" fill="none" xmlns="http://www.w3.org/2000/svg">
<path d="M16.25 24.6457H9.74996C3.86746 24.6457 1.35413 22.1323 1.35413 16.2498V9.74984C1.35413 3.86734 3.86746 1.354 9.74996 1.354H15.1666C15.6108 1.354 15.9791 1.72234 15.9791 2.1665C15.9791 2.61067 15.6108 2.979 15.1666 2.979H9.74996C4.75579 2.979 2.97913 4.75567 2.97913 9.74984V16.2498C2.97913 21.244 4.75579 23.0207 9.74996 23.0207H16.25C21.2441 23.0207 23.0208 21.244 23.0208 16.2498V10.8332C23.0208 10.389 23.3891 10.0207 23.8333 10.0207C24.2775 10.0207 24.6458 10.389 24.6458 10.8332V16.2498C24.6458 22.1323 22.1325 24.6457 16.25 24.6457Z" fill="white"/>
<path d="M23.8333 11.646H19.5C15.795 11.646 14.3541 10.2052 14.3541 6.50019V2.16686C14.3541 1.84186 14.5491 1.53852 14.8525 1.41936C15.1558 1.28936 15.5025 1.36519 15.7408 1.59269L24.4075 10.2594C24.635 10.4869 24.7108 10.8444 24.5808 11.1477C24.4508 11.451 24.1583 11.646 23.8333 11.646ZM15.9791 4.12769V6.50019C15.9791 9.29519 16.705 10.021 19.5 10.021H21.8725L15.9791 4.12769Z" fill="white"/>
<path d="M14.0834 14.896H7.58337C7.13921 14.896 6.77087 14.5277 6.77087 14.0835C6.77087 13.6393 7.13921 13.271 7.58337 13.271H14.0834C14.5275 13.271 14.8959 13.6393 14.8959 14.0835C14.8959 14.5277 14.5275 14.896 14.0834 14.896Z" fill="white"/>
<path d="M11.9167 19.229H7.58337C7.13921 19.229 6.77087 18.8607 6.77087 18.4165C6.77087 17.9723 7.13921 17.604 7.58337 17.604H11.9167C12.3609 17.604 12.7292 17.9723 12.7292 18.4165C12.7292 18.8607 12.3609 19.229 11.9167 19.229Z" fill="white"/>
</svg>
