<svg width="13" height="13" viewBox="0 0 13 13" fill="none" xmlns="http://www.w3.org/2000/svg">
<path d="M4.54468 10.0151V4.51182C4.54468 4.29515 4.60968 4.0839 4.72884 3.90515L6.20759 1.70598C6.44051 1.3539 7.02009 1.10473 7.51301 1.2889C8.04384 1.46765 8.39593 2.06348 8.28218 2.59432L8.00051 4.36557C7.97884 4.52807 8.02218 4.67432 8.11426 4.78807C8.20634 4.89098 8.34176 4.95598 8.48801 4.95598H10.7143C11.1422 4.95598 11.5105 5.12932 11.7272 5.43265C11.933 5.72515 11.9709 6.10432 11.8355 6.4889L10.503 10.546C10.3351 11.2176 9.60384 11.7647 8.87801 11.7647H6.76551C6.40259 11.7647 5.89343 11.6401 5.66051 11.4072L4.96718 10.871C4.70176 10.6706 4.54468 10.351 4.54468 10.0151Z" fill="#33A705"/>
<path d="M2.82212 3.45605H2.26421C1.42462 3.45605 1.08337 3.78105 1.08337 4.58272V10.0319C1.08337 10.8336 1.42462 11.1586 2.26421 11.1586H2.82212C3.66171 11.1586 4.00296 10.8336 4.00296 10.0319V4.58272C4.00296 3.78105 3.66171 3.45605 2.82212 3.45605Z" fill="#33A705"/>
</svg>
