<svg width="19" height="17" viewBox="0 0 19 17" fill="none" xmlns="http://www.w3.org/2000/svg">
<path d="M19 6.64027C18.9532 6.89975 18.7763 7.07706 18.5836 7.25279C17.3017 8.42279 16.0249 9.59751 14.7455 10.7699C14.6695 10.8395 14.6193 10.8949 14.6423 11.0183C14.9634 12.7462 15.2715 14.4764 15.5901 16.2047C15.6419 16.4858 15.5696 16.7138 15.3292 16.879C15.0863 17.046 14.8283 17.0284 14.5649 16.8978C12.9323 16.0883 11.2967 15.2836 9.66453 14.4729C9.54161 14.412 9.44963 14.4057 9.32128 14.4694C7.69032 15.2812 6.05518 16.0852 4.42254 16.8939C4.15371 17.0268 3.8899 17.05 3.6403 16.8727C3.40241 16.7032 3.32047 16.4732 3.39029 16.1953C3.41872 16.0813 3.42708 15.9633 3.4484 15.8473C3.74106 14.2406 4.03163 12.6334 4.33307 11.0282C4.35732 10.8992 4.30882 10.8379 4.22646 10.762C2.90656 9.55348 1.58708 8.34534 0.272608 7.1317C0.167668 7.03499 0.0694178 6.908 0.0284453 6.77866C-0.082766 6.42561 0.141747 6.07807 0.533913 6.0136C1.1761 5.90784 1.82288 5.82921 2.4684 5.74076C3.71807 5.56974 4.96815 5.40226 6.21614 5.22298C6.28721 5.21276 6.36414 5.11762 6.40261 5.04528C7.08534 3.75498 7.76264 2.46192 8.4412 1.16965C8.57917 0.906638 8.72299 0.645982 8.85469 0.380216C8.9797 0.126244 9.18832 0.00279626 9.47889 4.4243e-05C9.77825 -0.00270778 9.98896 0.122706 10.124 0.381002C10.9347 1.93235 11.7525 3.48056 12.5619 5.03231C12.6296 5.16244 12.7044 5.22023 12.8662 5.24185C14.6866 5.48207 16.5049 5.73564 18.3244 5.98136C18.7165 6.03443 18.9201 6.2542 19 6.60096L19 6.64027Z" fill="#FFCA41"/>
</svg>
