<svg width="15" height="12" viewBox="0 0 15 12" fill="none" xmlns="http://www.w3.org/2000/svg">
<path d="M0.263026 5.7599L3.7116 6.93921L5.05595 10.906C5.1144 11.174 5.4651 11.2276 5.6989 11.0668L7.62775 9.61944C7.8031 9.45863 8.09536 9.45863 8.32916 9.61944L11.7777 11.9244C12.0115 12.0853 12.3622 11.978 12.4207 11.71L14.9925 0.45304C15.0509 0.185017 14.7587 -0.0830044 14.4664 0.024205L0.263026 5.06305C-0.0876753 5.17026 -0.0876753 5.65269 0.263026 5.7599ZM4.8806 6.34956L11.6608 2.54362C11.7777 2.49002 11.8946 2.65083 11.7777 2.70444L6.22495 7.47526C6.0496 7.63607 5.87425 7.85049 5.87425 8.11851L5.6989 9.40502C5.6989 9.56584 5.40665 9.61944 5.3482 9.40502L4.64679 7.04642C4.47144 6.77839 4.58835 6.45676 4.8806 6.34956Z" fill="white"/>
</svg>
